HIERARCHY
ROOT Hips
{
	OFFSET 0.00000 0.00000 0.00000
	CHANNELS 6 Xposition Yposition Zposition Zrotation Yrotation Xrotation 
	JOINT LHipJoint
	{
		OFFSET 0 0 0
		CHANNELS 3 Zrotation Yrotation Xrotation
		JOINT LeftUpLeg
		{
			OFFSET 1.29432 -1.88279 0.59910
			CHANNELS 3 Zrotation Yrotation Xrotation
			JOINT LeftLeg
			{
				OFFSET 2.63039 -7.22694 0.00000
				CHANNELS 3 Zrotation Yrotation Xrotation
				JOINT LeftFoot
				{
					OFFSET 2.70674 -7.43672 0.00000
					CHANNELS 3 Zrotation Yrotation Xrotation
					JOINT LeftToeBase
					{
						OFFSET 0.15066 -0.41394 2.09027
						CHANNELS 3 Zrotation Yrotation Xrotation
						End Site
						{
							OFFSET 0.00000 -0.00000 1.07518
						}
					}
				}
			}
		}
	}
	JOINT RHipJoint
	{
		OFFSET 0 0 0
		CHANNELS 3 Zrotation Yrotation Xrotation
		JOINT RightUpLeg
		{
			OFFSET -1.37068 -1.88279 0.59910
			CHANNELS 3 Zrotation Yrotation Xrotation
			JOINT RightLeg
			{
				OFFSET -2.57023 -7.06166 0.00000
				CHANNELS 3 Zrotation Yrotation Xrotation
				JOINT RightFoot
				{
					OFFSET -2.76461 -7.59570 0.00000
					CHANNELS 3 Zrotation Yrotation Xrotation
					JOINT RightToeBase
					{
						OFFSET -0.24175 -0.64785 2.19719
						CHANNELS 3 Zrotation Yrotation Xrotation
						End Site
						{
							OFFSET -0.00000 -0.00000 1.14803
						}
					}
				}
			}
		}
	}
	JOINT LowerBack
	{
		OFFSET 0 0 0
		CHANNELS 3 Zrotation Yrotation Xrotation
		JOINT Spine
		{
			OFFSET -0.03138 2.03983 -0.23106
			CHANNELS 3 Zrotation Yrotation Xrotation
			JOINT Spine1
			{
				OFFSET -0.00325 2.06238 -0.06878
				CHANNELS 3 Zrotation Yrotation Xrotation
				JOINT Neck
				{
					OFFSET 0 0 0
					CHANNELS 3 Zrotation Yrotation Xrotation
					JOINT Neck1
					{
						OFFSET -0.00002 1.75318 0.18090
						CHANNELS 3 Zrotation Yrotation Xrotation
						JOINT Head
						{
							OFFSET 0.08806 1.75856 -0.25387
							CHANNELS 3 Zrotation Yrotation Xrotation
							End Site
							{
								OFFSET 0.02554 1.78597 -0.10684
							}
						}
					}
				}
				JOINT LeftShoulder
				{
					OFFSET 0 0 0
					CHANNELS 3 Zrotation Yrotation Xrotation
					JOINT LeftArm
					{
						OFFSET 3.09657 1.33597 -0.04414
						CHANNELS 3 Zrotation Yrotation Xrotation
						JOINT LeftForeArm
						{
							OFFSET 5.34298 -0.00000 -0.00000
							CHANNELS 3 Zrotation Yrotation Xrotation
							JOINT LeftHand
							{
								OFFSET 3.67262 -0.00000 -0.00000
								CHANNELS 3 Zrotation Yrotation Xrotation
								JOINT LeftFingerBase
								{
									OFFSET 0 0 0
									CHANNELS 3 Zrotation Yrotation Xrotation
									JOINT LeftHandIndex1
									{
										OFFSET 0.59930 -0.00000 -0.00000
										CHANNELS 3 Zrotation Yrotation Xrotation
										End Site
										{
											OFFSET 0.48317 -0.00000 -0.00000
										}
									}
								}
								JOINT LThumb
								{
									OFFSET 0 0 0
									CHANNELS 3 Zrotation Yrotation Xrotation
									End Site
									{
										OFFSET 0.49055 -0.00000 0.49055
									}
								}
							}
						}
					}
				}
				JOINT RightShoulder
				{
					OFFSET 0 0 0
					CHANNELS 3 Zrotation Yrotation Xrotation
					JOINT RightArm
					{
						OFFSET -3.16460 1.32273 -0.23382
						CHANNELS 3 Zrotation Yrotation Xrotation
						JOINT RightForeArm
						{
							OFFSET -5.54967 -0.01834 0.03348
							CHANNELS 3 Zrotation Yrotation Xrotation
							JOINT RightHand
							{
								OFFSET -3.69401 -0.00000 0.00000
								CHANNELS 3 Zrotation Yrotation Xrotation
								JOINT RightFingerBase
								{
									OFFSET 0 0 0
									CHANNELS 3 Zrotation Yrotation Xrotation
									JOINT RightHandIndex1
									{
										OFFSET -0.63811 -0.00000 0.00000
										CHANNELS 3 Zrotation Yrotation Xrotation
										End Site
										{
											OFFSET -0.51446 -0.00000 0.00000
										}
									}
								}
								JOINT RThumb
								{
									OFFSET 0 0 0
									CHANNELS 3 Zrotation Yrotation Xrotation
									End Site
									{
										OFFSET -0.52232 -0.00000 0.52232
									}
								}
							}
						}
					}
				}
			}
		}
	}
}
MOTION
Frames: 7
Frame Time: 0.105263
0.00 0.00 0.00 0 0 0 0 0 0 -21 0 0 0 0 0 0 0 0 0 0 0 0 0 0 21 0 0 0 0 0 0 0 0 0 0 0 0 0 0 0 0 0 0 0 0 0 0 -16 0 0 21 0 0 11 0 0 0 -8 0 0 0 0 0 0 0 0 0 0 0 0 0 0 0 0 0 0 0 0 8 0 0 0 0 0 0 0 0 0 0 0 0 0 0 0 0 0
0.00 0.00 0.00 -5.1302 -2.8433 -2.4867 0.0000 0.0000 0.0000 -9.6292 -12.3223 -31.2013 9.5181 17.1298 57.8653 0.8062 -5.4864 -16.0056 0.0269 -1.0586 -2.9101 0.0000 0.0000 0.0000 32.5323 2.0270 -12.4419 -4.9619 -13.3407 40.6577 -1.7441 1.5308 -24.5453 -0.0424 -1.3295 3.6559 -5.8533 1.1209 8.1191 -1.4480 1.0165 3.3119 1.6964 0.4743 -1.1888 4.2101 3.4937 -10.9649 -0.2015 4.1202 30.0633 -0.2629 2.2872 11.7231 -0.0000 0.0000 0.0000 -89.4305 -17.8726 24.0907 18.0010 -28.1584 -4.5497 -0.0000 -0.0000 16.4436 17.9189 28.7804 8.8488 -7.1250 0.0000 -0.0000 -14.7119 59.3712 -5.2339 -0.0000 0.0000 0.0000 89.9252 -2.0610 22.7865 -19.9440 30.5748 -5.5028 0.0000 0.0000 18.4064 -24.0846 23.6129 -10.1511 7.1250 -0.0000 -0.0000 3.1544 -4.4259 2.9061
0.00 0.00 0.00 -4.2984 -6.1543 -1.8254 0.0000 0.0000 0.0000 -13.0447 -9.3478 -33.5334 5.2421 13.6513 41.8583 0.3692 -9.4868 -11.8550 0.6269 -5.0667 -14.0988 0.0000 0.0000 0.0000 31.6858 -1.0948 -12.5558 -5.8383 -14.2698 44.3293 -1.5222 6.4713 -22.1138 -0.0714 -1.7235 4.7420 -7.3544 2.0382 7.7637 -1.9572 2.1607 3.7296 1.9142 1.0085 -0.6660 4.3918 5.2626 -10.2182 -2.5426 7.3138 28.4854 -0.7572 3.4729 11.1517 0.0000 0.0000 0.0000 -86.7700 -18.9453 26.7962 18.0279 -28.1928 -4.5624 -0.0000 -0.0000 15.2548 12.9744 27.7508 6.1232 -7.1250 0.0000 -0.0000 -19.2297 57.2935 -5.9384 0.0000 0.0000 0.0000 87.5761 0.5540 25.5746 -21.9951 32.9715 -6.5832 0.0000 0.0000 16.2393 -24.5824 23.9023 -10.5009 7.1250 -0.0000 -0.0000 2.8818 -4.0254 2.6758
0.00 0.00 0.00 -4.6470 -9.0087 -2.5663 0.0000 0.0000 0.0000 -12.5881 -11.6952 -31.3629 5.3532 13.7708 42.3270 0.1095 -3.5422 -6.0109 0.5403 4.7097 13.0825 0.0000 0.0000 0.0000 29.1878 -2.9792 -16.4452 -8.9045 -16.7458 55.7591 -0.0606 14.1478 -10.6309 -0.5317 4.6725 -12.9767 -5.9043 2.5664 9.0602 -2.2479 2.8696 4.2592 0.7036 1.3714 -0.8147 4.7458 6.6360 -8.9454 -4.2181 9.6276 26.8370 -1.1679 4.4078 10.4937 -0.0000 0.0000 0.0000 -84.0421 -18.8646 28.4553 18.3251 -28.5715 -4.7037 -0.0000 -0.0000 12.3700 11.5872 28.6908 5.6218 -7.1250 0.0000 -0.0000 -21.2841 57.8773 -6.9142 -0.0000 0.0000 0.0000 85.7574 3.2686 27.1714 -23.0134 34.1035 -7.1458 0.0000 0.0000 16.0268 -23.0450 23.8712 -9.7679 7.1250 -0.0000 -0.0000 3.8251 -4.3453 3.5323
0.00 0.00 0.00 -3.6029 -10.8727 -3.8715 0.0000 0.0000 0.0000 -13.5110 -13.9603 -28.2095 6.0308 14.4581 45.1052 0.3276 -4.6022 -10.2099 0.5709 4.8390 13.4498 0.0000 0.0000 0.0000 24.7904 -3.3845 -19.6248 -11.2585 -18.0593 63.6182 1.0090 17.5076 5.0253 -0.0809 1.8353 -5.0506 -6.5630 2.6113 10.1461 -1.9190 2.8013 4.7233 1.3821 1.3184 -0.9638 4.6598 7.7937 -8.0055 -6.3772 11.8420 26.1202 -1.6701 5.2096 10.3140 0.0000 0.0000 0.0000 -85.1842 -17.7850 24.3868 19.0166 -29.4393 -5.0390 -0.0000 -0.0000 14.5379 10.6423 31.0626 5.5379 -7.1250 0.0000 -0.0000 -24.0719 59.8372 -9.0323 0.0000 0.0000 0.0000 83.3483 5.1090 28.7506 -23.7595 34.9089 -7.5685 0.0000 0.0000 15.8425 -21.4977 23.6494 -8.9782 7.1250 -0.0000 -0.0000 4.7578 -4.8495 4.3539
0.00 0.00 0.00 -0.7423 -13.2287 -2.7708 0.0000 0.0000 0.0000 -16.9783 -9.9245 -14.4036 4.6556 12.9852 39.3130 1.2157 -3.3084 -20.0091 0.2071 2.9302 8.0844 0.0000 0.0000 0.0000 8.3161 13.7490 -21.7595 -4.0804 -12.2667 36.6821 -0.0476 -11.2978 -16.7454 -0.1950 2.8440 -7.8448 -6.0795 1.9057 9.1728 -1.1858 2.0016 4.6828 1.9930 0.9076 -0.4287 9.5319 14.4716 -3.1848 -13.7196 22.7681 24.8389 -3.6350 10.1372 11.3397 0.0000 -0.0000 0.0000 -83.4992 -17.3409 14.0007 13.1666 -21.5308 -2.5141 -0.0000 -0.0000 13.5617 16.2409 31.5082 8.6562 -7.1250 0.0000 -0.0000 -18.4988 61.5887 -7.6136 0.0000 -0.0000 0.0000 85.9211 6.0249 19.1544 -25.6347 36.8457 -8.6677 0.0000 0.0000 11.7901 -25.1854 23.1690 -10.4822 7.1250 -0.0000 -0.0000 2.4210 -4.6888 2.2170
0.00 0.00 0.00 -3.3849 3.4231 -0.7124 0.0000 0.0000 0.0000 -12.7796 -9.7347 -20.2148 9.7358 17.2586 58.6017 0.6100 -2.3118 -14.1439 0.1502 -2.4971 -6.8816 0.0000 0.0000 0.0000 16.9946 6.0550 -5.6983 -1.4798 -7.6862 21.7651 -0.5257 -4.4352 -16.0374 -0.6197 5.0379 -14.0166 -1.0142 1.5451 5.1369 0.2495 2.0157 2.8691 0.7226 0.9961 0.0257 10.7923 14.6282 0.0001 -11.9872 22.0292 20.0063 -3.6306 10.4864 8.8041 -0.0000 -0.0000 0.0000 -90.0189 -9.0332 22.0670 21.8511 -32.8084 -6.5050 -0.0000 -0.0000 9.8455 14.1628 33.3921 7.9069 -7.1250 0.0000 -0.0000 -22.4093 62.8103 -9.9536 -0.0000 -0.0000 0.0000 86.6979 -1.8097 5.9968 -14.8412 23.9244 -3.1612 0.0000 0.0000 23.9704 -20.7561 21.6229 -7.9502 7.1250 -0.0000 -0.0000 5.0369 -7.0814 4.3950
